<?xml version="1.0" encoding="UTF-8" standalone="no"?>
<svg
   xmlns:dc="http://purl.org/dc/elements/1.1/"
   xmlns:cc="http://creativecommons.org/ns#"
   xmlns:rdf="http://www.w3.org/1999/02/22-rdf-syntax-ns#"
   xmlns:svg="http://www.w3.org/2000/svg"
   xmlns="http://www.w3.org/2000/svg"
   xmlns:sodipodi="http://sodipodi.sourceforge.net/DTD/sodipodi-0.dtd"
   xmlns:inkscape="http://www.inkscape.org/namespaces/inkscape"
   version="1.1"
   x="0px"
   y="0px"
   viewBox="0 0 86.079002 90.000999"
   enable-background="new 0 0 100 100"
   xml:space="preserve"
   id="svg3392"
   inkscape:version="0.91 r13725"
   sodipodi:docname="coffeepot.svg"
   width="86.079002"
   height="90.000999"
   inkscape:export-filename="/home/steffen/Desktop/workcopies/coffemon/www/nopot.png"
   inkscape:export-xdpi="110.83"
   inkscape:export-ydpi="110.83"><metadata
     id="metadata3408"><rdf:RDF><cc:Work
         rdf:about=""><dc:format>image/svg+xml</dc:format><dc:type
           rdf:resource="http://purl.org/dc/dcmitype/StillImage" /><dc:title /></cc:Work></rdf:RDF></metadata><defs
     id="defs3406" /><sodipodi:namedview
     pagecolor="#ffffff"
     bordercolor="#666666"
     borderopacity="1"
     objecttolerance="10"
     gridtolerance="10"
     guidetolerance="10"
     inkscape:pageopacity="0"
     inkscape:pageshadow="2"
     inkscape:window-width="2560"
     inkscape:window-height="1576"
     id="namedview3404"
     showgrid="false"
     inkscape:zoom="11.288"
     inkscape:cx="42.55741"
     inkscape:cy="40.767709"
     inkscape:window-x="0"
     inkscape:window-y="24"
     inkscape:window-maximized="1"
     inkscape:current-layer="layer4"
     fit-margin-top="0"
     fit-margin-left="0"
     fit-margin-right="0"
     fit-margin-bottom="0" /><path
     d="M 54.732,36.973"
     id="path3394"
     inkscape:connector-curvature="0" /><g
     inkscape:groupmode="layer"
     id="layer1"
     inkscape:label="Maschine"
     style="display:inline"><path
       style="display:inline"
       d="m 2.018,0 6.799,6.507 3.483,0 3.118,6.992 9.124,0 3.3,6.797 10.291,0 8.068,0 0.663,0 3.312,-6.796 16.11,0 4.663,-6.992 0,70.291 -63.945,0 -0.401,0 C 2.957,76.799 0,79.752 0,83.4 c 0,3.644 2.958,6.601 6.603,6.601 l 0.401,0 79.075,0 L 86.079,0 2.018,0 Z m 41.082,16.952 -0.301,0 -3.658,0 -7.142,0 -1.503,-3.082 14.098,0 -1.494,3.082 z"
       id="path3398"
       inkscape:connector-curvature="0" /></g><g
     inkscape:groupmode="layer"
     id="layer2"
     inkscape:label="Kanne"
     style="display:inline"><path
       d="m 13.814453,25.201172 c -8.7679999,0 -8.330078,7.985297 -8.330078,12.154297 0,4.169 1.5133594,14.635984 -1.3066406,17.458984 l 0,3.558594 1.8261718,0 c 0,0 4.5976568,-5.819891 4.5976558,-11.462891 l 0,-11.816406 c 0,-1.986 3.740094,-4.249328 5.996094,-1.986328 1.474,1.47 2.912875,3.511469 4.796875,4.730469 l -0.01367,0.283203 c -4.574,5.67 -7.324218,12.896812 -7.324218,20.757812 0,5.509 1.350562,7.031657 3.726562,11.597656 l 38.199219,0 c 2.373,-4.564999 3.728515,-6.088656 3.728516,-11.597656 0,-7.861 -2.743266,-15.087812 -7.322266,-20.757812 l 8.507812,-12.832032 -12.253906,0 -23.884766,0 c 0,0 -2.167359,-0.08789 -10.943359,-0.08789 z m 3.099609,1.152344 c 7.537531,0 9.398438,0.08203 9.398438,0.08203 l 20.515625,0 10.523437,0 -7.304687,11.953125 c 3.93281,5.28207 6.287109,12.012769 6.287109,19.335937 0,5.132087 -1.163049,6.552015 -3.201172,10.804688 l -32.808593,0 c -2.040699,-4.253604 -3.201172,-5.672601 -3.201172,-10.804688 0,-7.323168 2.360545,-14.053858 6.289062,-19.335937 L 23.425781,38.125 16.914062,26.353516 Z"
       id="path3396"
       inkscape:connector-curvature="0" /></g><g
     inkscape:groupmode="layer"
     id="layer3"
     inkscape:label="Voll"
     style="display:inline"><path
       sodipodi:nodetypes="ccccsccsccc"
       inkscape:connector-curvature="0"
       id="path3429"
       d="m 26.313358,26.435577 c 0,0 -1.861191,-0.08292 -9.398721,-0.08292 l 6.510309,11.771472 -0.01202,0.265502 C 19.484409,43.67171 17.12249,50.402392 17.12249,57.72556 c 0,5.132087 1.161204,6.550886 3.201903,10.80449 l 32.808347,0 c 2.038122,-4.252673 3.201904,-5.672403 3.201904,-10.80449 0,-7.323168 -2.355907,-14.05385 -6.288717,-19.33592 l 7.306489,-11.954064 -10.523853,0"
       style="display:inline;fill:#66ff00" /></g><g
     inkscape:groupmode="layer"
     id="layer4"
     inkscape:label="halb"
     style="display:inline"><path
       style="display:inline;fill:#501616"
       d="m 23.013672,38.972656 c -3.679841,5.192353 -5.890625,11.689785 -5.890625,18.751953 0,5.132087 1.160473,6.551084 3.201172,10.804688 l 32.808593,0 c 2.038123,-4.252673 3.201172,-5.672601 3.201172,-10.804688 0,-7.062283 -2.20527,-13.559566 -5.888672,-18.751953 l -27.43164,0 z"
       id="path3359"
       inkscape:connector-curvature="0" /></g><g
     inkscape:groupmode="layer"
     id="layer5"
     inkscape:label="Leer"
     style="display:inline"><path
       style="display:inline;fill:#ff0000"
       d="m 17.705078,62.626953 c 0.534518,1.871857 1.419322,3.401458 2.619141,5.902344 l 32.808593,0 c 1.198305,-2.500339 2.084146,-4.030315 2.619141,-5.902344 l -38.046875,0 z"
       id="path3363"
       inkscape:connector-curvature="0" /></g></svg>